HIERARCHY
ROOT Hips
{
	OFFSET 0.000000 0.000000 0.000000 
	CHANNELS 6 Xposition Yposition Zposition Zrotation Yrotation Xrotation
	JOINT LeftUpLeg
	{
		OFFSET 1.363060 -1.794630 0.839290 
		CHANNELS 3 Zrotation Yrotation Xrotation
		JOINT LeftLeg
		{
			OFFSET 2.448110 -6.726130 0.000000 
			CHANNELS 3 Zrotation Yrotation Xrotation
			JOINT LeftFoot
			{
				OFFSET 2.562200 -7.039590 0.000000 
				CHANNELS 3 Zrotation Yrotation Xrotation
				JOINT LeftToeBase
				{
					OFFSET 0.157640 -0.433110 2.322550 
					CHANNELS 3 Zrotation Yrotation Xrotation
					End Site
					{
						OFFSET 0.000000 0.000000 0.000000 
					}
				}
			}
		}
	}
	JOINT RightUpLeg
	{
		OFFSET -1.305520 -1.794630 0.839290 
		CHANNELS 3 Zrotation Yrotation Xrotation
		JOINT RightLeg
		{
			OFFSET -2.542530 -6.985550 0.000000 
			CHANNELS 3 Zrotation Yrotation Xrotation
			JOINT RightFoot
			{
				OFFSET -2.568260 -7.056230 0.000000 
				CHANNELS 3 Zrotation Yrotation Xrotation
				JOINT RightToeBase
				{
					OFFSET -0.164730 -0.452590 2.363150 
					CHANNELS 3 Zrotation Yrotation Xrotation
					End Site
					{
						OFFSET 0.000000 0.000000 0.000000 
					}
				}
			}
		}
	}
	JOINT Spine
	{
		OFFSET 0.028270 2.035590 -0.193380 
		CHANNELS 3 Zrotation Yrotation Xrotation
		JOINT Spine1
		{
			OFFSET 0.056720 2.048850 -0.042750 
			CHANNELS 3 Zrotation Yrotation Xrotation
			JOINT Neck1
			{
				OFFSET -0.054170 1.746240 0.172020 
				CHANNELS 3 Zrotation Yrotation Xrotation
				JOINT Head
				{
					OFFSET 0.104070 1.761360 -0.123970 
					CHANNELS 3 Zrotation Yrotation Xrotation
					End Site
					{
						OFFSET 0.000000 0.000000 0.000000 
					}
				}
			}
			JOINT LeftArm
			{
				OFFSET 3.362410 1.200890 -0.311210 
				CHANNELS 3 Zrotation Yrotation Xrotation
				JOINT LeftForeArm
				{
					OFFSET 4.983000 -0.000000 -0.000000 
					CHANNELS 3 Zrotation Yrotation Xrotation
					JOINT LeftHand
					{
						OFFSET 3.483560 -0.000000 -0.000000 
						CHANNELS 3 Zrotation Yrotation Xrotation
						JOINT LeftHandIndex1
						{
							OFFSET 0.715260 -0.000000 -0.000000 
							CHANNELS 3 Zrotation Yrotation Xrotation
							End Site
							{
								OFFSET 0.000000 0.000000 0.000000 
							}
						}
					}
				}
			}
			JOINT RightArm
			{
				OFFSET -3.136600 1.374050 -0.404650 
				CHANNELS 3 Zrotation Yrotation Xrotation
				JOINT RightForeArm
				{
					OFFSET -5.241900 -0.000000 -0.000000 
					CHANNELS 3 Zrotation Yrotation Xrotation
					JOINT RightHand
					{
						OFFSET -3.444170 -0.000000 -0.000000 
						CHANNELS 3 Zrotation Yrotation Xrotation
						JOINT RightHandIndex1
						{
							OFFSET -0.622530 -0.000000 -0.000000 
							CHANNELS 3 Zrotation Yrotation Xrotation
							End Site
							{
								OFFSET 0.000000 0.000000 0.000000 
							}
						}
					}
				}
			}
		}
	}
}
MOTION
Frames: 13
Frame Time: 0.041667
13.232481 19.017236 -6.911836 -5.609320 2.237273 -0.798375 -48.294120 -42.134427 -32.376161 12.167371 13.305642 61.106719 -0.984509 -16.331129 -48.889751 0.002000 0.291400 0.800800 59.614371 -27.362034 41.178106 -6.680814 -1.250556 2.696192 1.360928 13.230523 -23.778684 -0.431700 4.216700 -11.687100 -3.944634 0.493909 49.269436 2.312172 -1.012842 -21.565267 -26.980528 27.192786 45.514190 -2.780500 9.055000 17.742700 -105.784803 -8.807865 -7.217465 26.714968 -43.023920 -3.595530 5.134091 8.738107 -1.113150 -7.125000 0.000000 0.000000 93.269300 -6.541003 25.670298 -33.863447 43.565203 -5.409357 -1.347350 1.780229 -5.783753 7.125000 0.000000 0.000000 
13.231415 19.034441 -6.837118 -5.027538 0.468820 -0.299357 -49.220353 -41.454311 -31.689123 12.086793 13.132547 60.445071 -0.994714 -16.475397 -49.102183 0.006000 0.501800 1.378700 62.939296 -22.546552 36.528892 -8.226814 -4.217490 15.024758 1.819345 14.194745 -25.987180 -0.309400 3.576200 -9.887400 -8.655218 2.678660 47.930826 3.656244 -0.078918 -22.069759 -27.385624 26.942622 46.086518 -3.100900 9.079800 17.544100 -105.028967 -8.264293 -6.754958 27.151637 -43.074602 -3.607974 4.990300 9.049009 -1.361492 -7.125000 0.000000 0.000000 93.750923 -7.362101 25.294308 -33.763656 43.359260 -5.315487 -1.319299 1.907407 -4.724650 7.125000 0.000000 0.000000 
13.246900 19.057299 -6.726679 -4.685477 -1.404230 -0.245593 -50.852517 -39.739501 -29.817049 12.134657 12.781410 59.814821 -0.789247 -16.331150 -49.758075 0.019300 0.897600 2.467000 64.308896 -19.136945 34.479448 -9.321409 -5.500346 21.676277 1.967337 14.350534 -26.776867 -0.393200 4.026600 -11.151500 -10.805549 3.817799 46.610323 4.392724 0.512520 -22.884924 -26.835309 27.056771 47.712964 -2.770200 9.243800 17.969300 -104.571298 -7.380105 -6.371554 27.617366 -43.269752 -3.678902 4.924653 9.251973 -2.099469 -7.125000 0.000000 0.000000 93.581226 -8.014336 25.575143 -33.628109 43.088192 -5.224823 -1.316317 1.969340 -4.181461 7.125000 0.000000 0.000000 
13.246900 19.079911 -6.656631 -4.609495 -1.684702 0.320172 -51.357991 -39.349429 -29.478355 12.095237 12.640721 59.308515 -0.879937 -16.480232 -49.636131 0.011600 0.694000 1.907200 65.573514 -16.685525 32.014925 -10.025721 -6.467250 26.697172 1.627523 13.593462 -27.012200 -0.430000 4.208400 -11.663800 -11.539252 3.996259 46.721677 4.457124 0.577131 -22.531661 -25.198416 27.027838 48.545064 -1.956900 9.322400 18.582900 -104.378850 -7.802709 -5.766727 27.727002 -43.576740 -3.713930 4.956030 9.549681 -2.773346 -7.125000 0.000000 0.000000 93.769782 -7.187788 25.719715 -33.141908 42.777141 -5.046150 -1.289477 2.096807 -3.668643 7.125000 0.000000 0.000000 
13.248702 19.097197 -6.582732 -4.777126 -1.630130 0.778175 -51.995608 -38.965649 -28.978224 12.102915 12.523560 58.756285 -0.723436 -16.122643 -49.717762 0.004000 -0.406400 -1.116800 66.396818 -14.672389 29.777810 -10.638671 -7.228649 30.885635 1.573204 13.172363 -26.869872 -0.555800 4.775400 -13.269100 -9.922871 3.164668 47.277939 4.370017 0.485668 -22.264384 -25.245911 27.571822 48.487698 -1.750800 9.454000 18.487700 -104.683254 -7.761799 -6.304967 27.858878 -43.800463 -3.780478 4.877277 9.489430 -2.974189 -7.125000 0.000000 0.000000 93.276332 -6.987145 26.344247 -33.070098 42.531874 -4.970122 -1.317329 2.232565 -3.085239 7.125000 0.000000 0.000000 
13.251570 19.113255 -6.501705 -6.653400 -1.148714 1.259963 -53.055206 -38.199962 -27.612776 12.117569 12.310128 58.178155 -0.448163 -15.762630 -50.075786 0.034800 -1.203500 -3.308800 67.075303 -12.705450 27.469126 -11.229755 -7.886798 34.840115 1.501060 12.700111 -26.722377 -0.692000 5.318000 -14.817900 5.522577 -3.140413 43.979208 2.138387 -0.441009 -24.402306 -31.378356 31.464617 48.268730 -3.012500 10.362500 17.389200 -105.621233 -4.013206 -9.590871 29.302859 -44.304027 -4.075549 4.624839 9.297896 -3.385829 -7.125000 0.000000 0.000000 89.473425 -9.924522 29.599533 -34.200323 42.167413 -5.133476 -1.414193 2.161980 -3.468604 7.125000 0.000000 0.000000 
13.255994 19.134311 -6.412814 -3.995648 -2.364496 0.838022 -54.982068 -36.683483 -25.541891 12.157990 11.989947 57.205763 -0.273092 -15.518603 -50.311006 0.034200 -1.193200 -3.280500 66.781896 -10.968200 26.544927 -11.741817 -8.526433 38.774981 0.307108 10.523374 -26.727158 -0.708900 5.381000 -14.998600 -11.104483 3.177597 45.746258 5.803244 0.911024 -23.233998 -26.436029 28.517436 49.390784 -1.951300 9.770000 18.601900 -104.499765 -6.413735 -6.775538 28.393195 -43.893134 -3.852034 4.916772 9.506743 -3.228833 -7.125000 0.000000 0.000000 92.493289 -8.201681 27.025904 -33.294955 42.378638 -4.959651 -1.193050 2.120951 -3.035500 7.125000 0.000000 0.000000 
13.263285 19.159708 -6.330067 -3.084631 -2.871707 1.032625 -56.349717 -35.635497 -24.003908 12.170238 11.705999 56.311979 -0.168456 -15.389830 -50.347880 0.026000 -1.040600 -2.860600 66.847942 -9.171807 24.743082 -12.266577 -9.102452 42.600817 -0.342066 9.077374 -26.278363 -0.683100 5.284300 -14.721300 -15.888317 4.811208 44.407196 7.054464 1.386770 -22.537499 -26.784261 28.446180 48.566969 -2.301500 9.842100 18.383200 -104.067797 -6.716561 -6.326423 28.215544 -43.519071 -3.757039 4.962667 9.477005 -3.077654 -7.125000 0.000000 0.000000 93.317768 -8.183359 26.076992 -33.161529 42.335041 -4.869280 -0.939914 1.929222 -2.923903 7.125000 0.000000 0.000000 
13.270577 19.186335 -6.258953 -2.499239 -3.245036 1.842550 -57.020423 -35.274246 -23.488603 12.141977 11.486559 55.480349 -0.176749 -15.426861 -50.243256 0.029300 -1.104600 -3.036600 67.228452 -7.176243 22.200083 -12.714472 -9.680852 46.597158 -1.613873 6.576450 -24.909321 -0.197600 2.862200 -7.895400 -20.032089 6.457799 43.989037 6.856999 1.542825 -20.905969 -23.840028 27.121329 48.542628 -1.475800 9.553000 19.264900 -103.606260 -9.183718 -5.405235 27.169850 -43.029406 -3.490668 5.160661 9.664116 -2.409980 -7.125000 0.000000 0.000000 95.145308 -6.221761 24.612267 -32.207860 42.135680 -4.635007 -1.002109 2.202675 -1.820955 7.125000 0.000000 0.000000 
13.269922 19.215010 -6.196279 -2.455382 -3.501196 2.515732 -57.681199 -34.649353 -22.820846 12.110724 11.277367 54.676128 -0.205871 -15.507935 -50.160013 0.049000 -1.428900 -3.929900 67.647626 -4.915065 19.494235 -13.148921 -10.230722 50.374167 -2.563502 4.619576 -24.494406 -0.182200 2.749400 -7.581700 -19.982669 5.814304 43.068954 7.938168 1.622447 -21.555304 -25.713209 28.294661 48.599169 -1.890100 9.922900 18.684600 -103.763021 -7.728753 -6.672694 27.733719 -43.159089 -3.573826 5.083357 9.668574 -2.452533 -7.125000 0.000000 0.000000 94.117495 -7.465050 25.574792 -32.599510 42.017914 -4.719308 -1.165161 2.223843 -1.813413 7.125000 0.000000 0.000000 
13.269512 19.242947 -6.125329 -1.999945 -4.005169 2.774450 -58.794313 -33.281718 -21.437234 12.135549 10.953119 53.820471 -0.206706 -15.627704 -50.131063 0.066300 -1.661600 -4.571500 67.622816 -3.064362 17.219511 -13.579057 -10.762220 53.811574 -3.370459 2.843183 -25.561849 -1.075700 6.592700 -18.514100 -21.769235 6.320163 42.184360 8.533328 1.866310 -21.382466 -25.403939 28.197762 48.650334 -1.800100 9.943300 18.788800 -103.602831 -7.965562 -6.691975 27.351436 -42.691785 -3.461879 5.251118 9.465461 -2.010596 -7.125000 0.000000 0.000000 94.447863 -7.445936 25.153161 -32.511331 42.058879 -4.730302 -1.224901 2.156807 -1.941411 7.125000 0.000000 0.000000 
13.277950 19.265969 -6.046433 -1.748808 -4.227635 2.588518 -59.962012 -31.737116 -19.567899 12.171375 10.577209 52.984107 -0.244640 -15.890843 -50.071976 0.051600 -1.465500 -4.030700 67.275855 -1.664808 15.266881 -13.927565 -11.320556 57.526721 -4.322991 0.731986 -24.468353 -0.495000 4.511000 -12.518800 -22.191978 6.303869 41.782588 9.167151 2.045842 -21.346591 -28.062622 29.112677 46.387910 -2.866700 10.157100 17.920500 -103.701139 -7.748218 -6.962140 27.259546 -42.282812 -3.379728 5.347077 9.397241 -1.729905 -7.125000 0.000000 0.000000 94.142820 -7.891815 25.283118 -32.587949 41.884348 -4.727671 -1.364413 2.190809 -2.203502 7.125000 0.000000 0.000000 
13.283849 19.292677 -5.980890 -1.653569 -4.315790 2.902447 -60.629681 -30.915675 -18.523578 12.170280 10.300542 52.195057 -0.349345 -16.166816 -49.871649 0.051100 -1.459100 -4.013000 67.192120 0.010984 12.768142 -14.304131 -11.867481 61.142476 -5.013222 -0.978561 -23.587396 -0.180900 2.739300 -7.553800 -22.482185 6.257119 41.739549 9.364067 2.073336 -21.121234 -28.101968 29.411758 46.252692 -2.814500 10.281600 17.848100 -103.646035 -7.899283 -6.904098 27.147302 -42.065283 -3.304804 5.414153 9.534104 -1.321541 -7.125000 0.000000 0.000000 94.079592 -7.854346 25.325318 -32.536357 41.789077 -4.727992 -1.545044 2.316825 -2.367548 7.125000 0.000000 0.000000 
